<svg xmlns="http://www.w3.org/2000/svg" xmlns:xlink="http://www.w3.org/1999/xlink" version="1.1" x="0px" y="0px" viewBox="0 0 25.529 30" style="enable-background:new 0 0 25.529 24;" xml:space="preserve"><g><path style="fill: #6488DD" d="M18.529,14.21c0.716,0.489,1.567,0.79,2.5,0.79c2.484,0,4.5-2.016,4.5-4.5c0-2.077-1.416-3.809-3.33-4.326   c0.209-0.518,0.33-1.081,0.33-1.674c0-2.484-2.016-4.5-4.5-4.5c-2.484,0-4.5,2.016-4.5,4.5c0,0.593,0.121,1.155,0.33,1.674   c-1.162,0.314-2.136,1.08-2.725,2.096l7.303,4.564l-0.908,1.453V23h-3v-9.07L16,14.848l1.059-1.695L8.529,7.82L0,13.152   l1.059,1.695l1.471-0.918V23h-2v1h24v-1h-6V14.21z M10.529,23h-4v-5h4V23z"/></g></svg>
